<?xml version="1.0" encoding="utf-8"?>
<!-- Generator: Adobe Illustrator 22.1.0, SVG Export Plug-In . SVG Version: 6.00 Build 0)  -->
<svg version="1.1" id="橢圓形咖啡豆" xmlns="http://www.w3.org/2000/svg" xmlns:xlink="http://www.w3.org/1999/xlink" x="0px"
	 y="0px" viewBox="0 0 256 256" style="enable-background:new 0 0 256 256;" xml:space="preserve">
<style type="text/css">
	.st0{fill:#8C6239;}
	.st1{fill:#FBB03B;}
	.st2{fill:#603813;}
</style>
<g>
	<g>
		<ellipse transform="matrix(0.7071 -0.7071 0.7071 0.7071 -62.9639 152.0084)" class="st0" cx="152" cy="152" rx="120" ry="85"/>
	</g>
	<g>
		<path class="st1" d="M236,81.8c-5,0.2-10,0.8-14.7,1.7c-4.8,0.9-9.4,2.1-13.8,3.7c-4.4,1.6-8.6,3.4-12.5,5.7
			c-2,1.1-3.9,2.3-5.7,3.6c-1.8,1.3-3.6,2.6-5.3,4c-6.7,5.6-12.3,12.4-16.8,20c-4.5,7.5-8.1,15.8-10.9,24.5
			c-1.4,4.3-2.7,8.8-3.8,13.3l-1.7,7.2c-0.3,1.3-0.7,2.6-1,4c-0.4,1.3-0.8,2.6-1.2,3.9c-1.7,5.2-3.8,10.4-6.4,15.5
			c-2.6,5-5.8,9.9-9.7,14.3c-3.8,4.4-8.4,8.4-13.5,11.5c-5.1,3.1-10.7,5.4-16.4,6.5c-2.8,0.6-5.7,0.9-8.5,1
			c-2.8,0.1-5.6-0.1-8.3-0.5c-2.7-0.4-5.4-1.1-7.9-2c-2.5-0.9-5-1.9-7.3-3.4l0.3-1c10.2-0.6,19.5-3.3,26.9-7.7
			c7.5-4.4,13-10.4,17.3-17.5c4.3-7.1,7.4-15.3,9.8-23.9c0.6-2.2,1.1-4.3,1.7-6.6l0.8-3.5l0.9-3.9l1-3.9c0.4-1.3,0.8-2.6,1.2-3.9
			c0.8-2.6,1.6-5.1,2.6-7.7c3.8-10.2,8.9-20.1,15.6-29c3.4-4.5,7.2-8.7,11.4-12.4c2.1-1.9,4.3-3.7,6.6-5.3c2.3-1.6,4.7-3.2,7.1-4.6
			c4.9-2.8,10.1-4.9,15.4-6.6c5.3-1.6,10.7-2.5,16.1-2.9c5.4-0.4,10.7-0.1,15.9,0.7c5.2,0.8,10.3,2.1,15,4.2L236,81.8z"/>
	</g>
</g>
<g>
	<path class="st2" d="M35.7,167.2C40.9,136.9,57.3,106.7,82,82c18.5-18.5,40.3-32.3,62.7-40.3c-20.6-29.3-50-45.9-79.2-40.8
		C19.2,9.1-8.9,68.6,2.6,133.9C7.7,163.1,20,188.5,36,206.9C33.4,194.7,33.3,181.3,35.7,167.2z"/>
</g>
<path class="st1" d="M54.9,116.6c4.4-7.3,9.4-14.4,15-21.3c-5.4-9.7-8.9-20.1-9.4-31.3C60,55.2,61.4,46,64.3,36.8
	c1.4-4.6,3.2-9.1,5.4-13.6c2.1-4.5,4.5-8.9,7.3-13.2l-0.7-0.7c-4.5,2.8-8.5,6.2-12.3,10c-3.7,3.8-7.1,8-10.1,12.6
	c-3,4.6-5.5,9.5-7.5,14.8c-1.9,5.3-3.4,10.8-4.1,16.5c-1.5,11.4-0.2,23.4,3.6,34.3C48.2,104.2,51.3,110.6,54.9,116.6z"/>
</svg>
