<?xml version="1.0" encoding="utf-8"?>
<!-- Generator: Adobe Illustrator 22.0.1, SVG Export Plug-In . SVG Version: 6.00 Build 0)  -->
<svg version="1.1" id="底圖" xmlns="http://www.w3.org/2000/svg" xmlns:xlink="http://www.w3.org/1999/xlink" x="0px" y="0px"
	 viewBox="0 0 512 512" style="enable-background:new 0 0 512 512;" xml:space="preserve">
<style type="text/css">
	.st0{display:none;}
	.st1{display:inline;fill:#F0E1D0;}
	.st2{fill:#412210;}
	.st3{fill:#FFFFFF;}
	.st4{fill:#A5774E;}
	.st5{fill:url(#SVGID_1_);}
	.st6{fill:url(#SVGID_2_);}
	.st7{fill:url(#SVGID_3_);}
	.st8{fill:url(#SVGID_4_);}
	.st9{fill:none;stroke:#603813;stroke-width:12.0672;stroke-linecap:round;stroke-linejoin:round;stroke-miterlimit:10;}
	.st10{fill:#9E005D;}
	.st11{fill:none;stroke:#FFFFFF;stroke-width:2.3792;stroke-miterlimit:10;}
</style>
<g class="st0">
	<rect class="st1" width="512" height="512"/>
</g>
<g>
	<path class="st2" d="M362,266.6c-10.2,36.6-39.7,55.6-39.7,55.6c-76.3,35.6-129.7,2.5-129.7,2.5c-24-10.9-34-36.9-37.5-62.9
		c-25.1,12.9-40.7,30.6-40.7,50.2c0,39.3,62.6,71.2,139.9,71.2s139.9-31.9,139.9-71.2C394.3,294.8,382.2,279,362,266.6z"/>
	<path class="st2" d="M211.1,310.6c19.3,6.5,49.3,7.1,81.4,1.5c15.8-2.8,45.8-5.1,56.3-50.2c5.7-24.6,33.7-43.6,48-72.3
		c0,0,10.2-47.2-45.8-35.4c0,0,17.8-60-73.8-65.9c0,0-125.2,6-137.3,45.8C139.9,134,134,284.8,211.1,310.6z"/>
	<ellipse class="st3" cx="249.3" cy="136.3" rx="78.8" ry="22.7"/>
	<path class="st4" d="M253.6,1c0,0,79.8,33.3,20,99.8c0,0-26.1,24.7,13.9,57.9c0,0-83.7-41.3-23.8-74.5
		C263.6,84.2,303.5,30.9,253.6,1z"/>
	<path class="st4" d="M227.4,13.1c0,0,48.5,36.5-3.8,71.4c0,0-23.6,21.4-2.3,51c0,0-48.1-51.8-1.6-64
		C219.7,71.4,256.1,42.2,227.4,13.1z"/>
	<path class="st3" d="M363.9,165.5c0,0,26.5-0.1,18.9,22.4c0,0-17.4,30.4-27,27.9L363.9,165.5z"/>
	<path class="st3" d="M178.9,231.1c-6.4-14.6-13.9-33.6-21.2-56.6c0,0,15.4,85.1,32.6,102.7l5.9-11.4
		C196.2,265.8,188.8,253.7,178.9,231.1z"/>
</g>
<g>
	<linearGradient id="SVGID_1_" gradientUnits="userSpaceOnUse" x1="57" y1="452.4042" x2="455" y2="452.4042">
		<stop  offset="0" style="stop-color:#FF931E"/>
		<stop  offset="1" style="stop-color:#FBB03B"/>
	</linearGradient>
	<rect x="57" y="449.8" class="st5" width="398" height="5.2"/>
	<linearGradient id="SVGID_2_" gradientUnits="userSpaceOnUse" x1="57" y1="467.4042" x2="455" y2="467.4042">
		<stop  offset="0" style="stop-color:#FF931E"/>
		<stop  offset="1" style="stop-color:#FBB03B"/>
	</linearGradient>
	<rect x="57" y="464.8" class="st6" width="398" height="5.2"/>
	<linearGradient id="SVGID_3_" gradientUnits="userSpaceOnUse" x1="57" y1="482.4042" x2="455" y2="482.4042">
		<stop  offset="0" style="stop-color:#FF931E"/>
		<stop  offset="1" style="stop-color:#FBB03B"/>
	</linearGradient>
	<rect x="57" y="479.8" class="st7" width="398" height="5.2"/>
	<linearGradient id="SVGID_4_" gradientUnits="userSpaceOnUse" x1="57" y1="497.4042" x2="455" y2="497.4042">
		<stop  offset="0" style="stop-color:#FF931E"/>
		<stop  offset="1" style="stop-color:#FBB03B"/>
	</linearGradient>
	<rect x="57" y="494.8" class="st8" width="398" height="5.2"/>
</g>
<g>
	<g>
		<path class="st9" d="M85.7,429.2V406c0-2,0.1-4.4,0.3-7.2h-0.1c-0.5,2-0.8,3.3-1.1,3.9l-10.9,26.5h-3.6l-11-26.3
			c-0.3-0.7-0.6-2-1.1-4.1h-0.1c0.2,2.2,0.2,4.8,0.2,7.9v22.6H53v-36h7.8l9.7,23.8c0.8,1.9,1.3,3.4,1.5,4.6h0.2
			c0.3-1,0.8-2.5,1.6-4.7l9.9-23.7h7.5v36H85.7z"/>
		<path class="st10" d="M85.7,429.2V406c0-2,0.1-4.4,0.3-7.2h-0.1c-0.5,2-0.8,3.3-1.1,3.9l-10.9,26.5h-3.6l-11-26.3
			c-0.3-0.7-0.6-2-1.1-4.1h-0.1c0.2,2.2,0.2,4.8,0.2,7.9v22.6H53v-36h7.8l9.7,23.8c0.8,1.9,1.3,3.4,1.5,4.6h0.2
			c0.3-1,0.8-2.5,1.6-4.7l9.9-23.7h7.5v36H85.7z"/>
		<path class="st11" d="M85.7,429.2V406c0-2,0.1-4.4,0.3-7.2h-0.1c-0.5,2-0.8,3.3-1.1,3.9l-10.9,26.5h-3.6l-11-26.3
			c-0.3-0.7-0.6-2-1.1-4.1h-0.1c0.2,2.2,0.2,4.8,0.2,7.9v22.6H53v-36h7.8l9.7,23.8c0.8,1.9,1.3,3.4,1.5,4.6h0.2
			c0.3-1,0.8-2.5,1.6-4.7l9.9-23.7h7.5v36H85.7z"/>
	</g>
	<g>
		<path class="st9" d="M100.2,405.2c2.6-1.5,5.6-2.3,9.1-2.3c6.5,0,9.7,3.4,9.7,10.1v16.2h-5.3v-3.9h-0.1c-1.8,3-4.4,4.5-7.8,4.5
			c-2.5,0-4.5-0.7-6-2c-1.4-1.4-2.2-3.2-2.2-5.5c0-4.8,2.9-7.7,8.6-8.5l7.5-1c0-3.8-1.7-5.7-5-5.7c-3.1,0-5.9,1-8.5,3V405.2z
			 M108.1,417.3c-1.9,0.2-3.2,0.7-3.9,1.4c-0.8,0.7-1.2,1.7-1.2,3.1c0,1.1,0.4,2.1,1.2,2.8c0.8,0.7,1.9,1.1,3.2,1.1
			c1.8,0,3.3-0.6,4.6-1.9s1.8-2.9,1.8-4.9v-2.3L108.1,417.3z"/>
		<path class="st10" d="M100.2,405.2c2.6-1.5,5.6-2.3,9.1-2.3c6.5,0,9.7,3.4,9.7,10.1v16.2h-5.3v-3.9h-0.1c-1.8,3-4.4,4.5-7.8,4.5
			c-2.5,0-4.5-0.7-6-2c-1.4-1.4-2.2-3.2-2.2-5.5c0-4.8,2.9-7.7,8.6-8.5l7.5-1c0-3.8-1.7-5.7-5-5.7c-3.1,0-5.9,1-8.5,3V405.2z
			 M108.1,417.3c-1.9,0.2-3.2,0.7-3.9,1.4c-0.8,0.7-1.2,1.7-1.2,3.1c0,1.1,0.4,2.1,1.2,2.8c0.8,0.7,1.9,1.1,3.2,1.1
			c1.8,0,3.3-0.6,4.6-1.9s1.8-2.9,1.8-4.9v-2.3L108.1,417.3z"/>
		<path class="st11" d="M100.2,405.2c2.6-1.5,5.6-2.3,9.1-2.3c6.5,0,9.7,3.4,9.7,10.1v16.2h-5.3v-3.9h-0.1c-1.8,3-4.4,4.5-7.8,4.5
			c-2.5,0-4.5-0.7-6-2c-1.4-1.4-2.2-3.2-2.2-5.5c0-4.8,2.9-7.7,8.6-8.5l7.5-1c0-3.8-1.7-5.7-5-5.7c-3.1,0-5.9,1-8.5,3V405.2z
			 M108.1,417.3c-1.9,0.2-3.2,0.7-3.9,1.4c-0.8,0.7-1.2,1.7-1.2,3.1c0,1.1,0.4,2.1,1.2,2.8c0.8,0.7,1.9,1.1,3.2,1.1
			c1.8,0,3.3-0.6,4.6-1.9s1.8-2.9,1.8-4.9v-2.3L108.1,417.3z"/>
	</g>
	<g>
		<path class="st9" d="M140.8,408.7c-0.8-0.5-1.9-0.8-3.2-0.8c-1.8,0-3.2,0.8-4.3,2.3s-1.6,3.6-1.6,6.2v12.8h-5.5v-25.7h5.5v5.1h0.1
			c1.3-3.7,3.5-5.6,6.7-5.6c1,0,1.7,0.1,2.3,0.3V408.7z"/>
		<path class="st10" d="M140.8,408.7c-0.8-0.5-1.9-0.8-3.2-0.8c-1.8,0-3.2,0.8-4.3,2.3s-1.6,3.6-1.6,6.2v12.8h-5.5v-25.7h5.5v5.1
			h0.1c1.3-3.7,3.5-5.6,6.7-5.6c1,0,1.7,0.1,2.3,0.3V408.7z"/>
		<path class="st11" d="M140.8,408.7c-0.8-0.5-1.9-0.8-3.2-0.8c-1.8,0-3.2,0.8-4.3,2.3s-1.6,3.6-1.6,6.2v12.8h-5.5v-25.7h5.5v5.1
			h0.1c1.3-3.7,3.5-5.6,6.7-5.6c1,0,1.7,0.1,2.3,0.3V408.7z"/>
	</g>
	<g>
		<path class="st9" d="M167.9,429.2h-7.1l-10.2-12.5h-0.1v12.5H145v-38h5.5v24.1h0.1l9.7-11.8h6.8l-11,12.3L167.9,429.2z"/>
		<path class="st10" d="M167.9,429.2h-7.1l-10.2-12.5h-0.1v12.5H145v-38h5.5v24.1h0.1l9.7-11.8h6.8l-11,12.3L167.9,429.2z"/>
		<path class="st11" d="M167.9,429.2h-7.1l-10.2-12.5h-0.1v12.5H145v-38h5.5v24.1h0.1l9.7-11.8h6.8l-11,12.3L167.9,429.2z"/>
	</g>
	<g>
		<g>
			<path class="st9" d="M209.2,427.8c-2.7,1.3-6,2-10.1,2c-5.2,0-9.4-1.6-12.5-4.9c-3.1-3.3-4.7-7.6-4.7-13c0-5.6,1.7-10.2,5.2-13.9
				c3.5-3.6,8-5.4,13.4-5.4c3.5,0,6.3,0.5,8.6,1.4v5.6c-2.5-1.4-5.4-2.1-8.4-2.1c-3.9,0-7.1,1.3-9.4,3.9c-2.4,2.6-3.6,6-3.6,10.1
				c0,4,1.1,7.2,3.3,9.7c2.2,2.5,5.2,3.7,8.9,3.7c3.5,0,6.5-0.8,9.2-2.4V427.8z"/>
		</g>
		<g>
			<path class="st10" d="M209.2,427.8c-2.7,1.3-6,2-10.1,2c-5.2,0-9.4-1.6-12.5-4.9c-3.1-3.3-4.7-7.6-4.7-13
				c0-5.6,1.7-10.2,5.2-13.9c3.5-3.6,8-5.4,13.4-5.4c3.5,0,6.3,0.5,8.6,1.4v5.6c-2.5-1.4-5.4-2.1-8.4-2.1c-3.9,0-7.1,1.3-9.4,3.9
				c-2.4,2.6-3.6,6-3.6,10.1c0,4,1.1,7.2,3.3,9.7c2.2,2.5,5.2,3.7,8.9,3.7c3.5,0,6.5-0.8,9.2-2.4V427.8z"/>
		</g>
		<path class="st11" d="M209.2,427.8c-2.7,1.3-6,2-10.1,2c-5.2,0-9.4-1.6-12.5-4.9c-3.1-3.3-4.7-7.6-4.7-13c0-5.6,1.7-10.2,5.2-13.9
			c3.5-3.6,8-5.4,13.4-5.4c3.5,0,6.3,0.5,8.6,1.4v5.6c-2.5-1.4-5.4-2.1-8.4-2.1c-3.9,0-7.1,1.3-9.4,3.9c-2.4,2.6-3.6,6-3.6,10.1
			c0,4,1.1,7.2,3.3,9.7c2.2,2.5,5.2,3.7,8.9,3.7c3.5,0,6.5-0.8,9.2-2.4V427.8z"/>
	</g>
	<g>
		<g>
			<path class="st9" d="M213.8,416.6c0-4.2,1.2-7.6,3.6-10c2.4-2.4,5.7-3.7,9.8-3.7c3.9,0,7,1.2,9.3,3.6c2.3,2.4,3.4,5.6,3.4,9.7
				c0,4.1-1.2,7.4-3.6,9.9s-5.6,3.7-9.6,3.7c-3.9,0-7.1-1.2-9.4-3.6C215,423.8,213.8,420.6,213.8,416.6z M219.4,416.5
				c0,2.8,0.7,5,2.1,6.6c1.4,1.6,3.2,2.4,5.6,2.4c4.9,0,7.4-3,7.4-9.1c0-2.9-0.6-5.2-1.9-6.7c-1.3-1.5-3.1-2.3-5.5-2.3
				s-4.3,0.8-5.6,2.5C220,411.4,219.4,413.6,219.4,416.5z"/>
		</g>
		<g>
			<path class="st10" d="M213.8,416.6c0-4.2,1.2-7.6,3.6-10c2.4-2.4,5.7-3.7,9.8-3.7c3.9,0,7,1.2,9.3,3.6c2.3,2.4,3.4,5.6,3.4,9.7
				c0,4.1-1.2,7.4-3.6,9.9s-5.6,3.7-9.6,3.7c-3.9,0-7.1-1.2-9.4-3.6C215,423.8,213.8,420.6,213.8,416.6z M219.4,416.5
				c0,2.8,0.7,5,2.1,6.6c1.4,1.6,3.2,2.4,5.6,2.4c4.9,0,7.4-3,7.4-9.1c0-2.9-0.6-5.2-1.9-6.7c-1.3-1.5-3.1-2.3-5.5-2.3
				s-4.3,0.8-5.6,2.5C220,411.4,219.4,413.6,219.4,416.5z"/>
		</g>
		<path class="st11" d="M213.8,416.6c0-4.2,1.2-7.6,3.6-10c2.4-2.4,5.7-3.7,9.8-3.7c3.9,0,7,1.2,9.3,3.6c2.3,2.4,3.4,5.6,3.4,9.7
			c0,4.1-1.2,7.4-3.6,9.9s-5.6,3.7-9.6,3.7c-3.9,0-7.1-1.2-9.4-3.6C215,423.8,213.8,420.6,213.8,416.6z M219.4,416.5
			c0,2.8,0.7,5,2.1,6.6c1.4,1.6,3.2,2.4,5.6,2.4c4.9,0,7.4-3,7.4-9.1c0-2.9-0.6-5.2-1.9-6.7c-1.3-1.5-3.1-2.3-5.5-2.3
			s-4.3,0.8-5.6,2.5C220,411.4,219.4,413.6,219.4,416.5z"/>
	</g>
	<g>
		<g>
			<path class="st9" d="M259.3,395.6c-0.9-0.4-1.9-0.7-2.8-0.7c-2.8,0-4.1,1.7-4.1,5v3.5h5.9v4.3h-5.9v21.4h-5.4v-21.4h-4.4v-4.3
				h4.4v-3.8c0-2.8,0.8-5,2.5-6.7s3.8-2.5,6.5-2.5c1.4,0,2.5,0.2,3.4,0.5V395.6z"/>
		</g>
		<g>
			<path class="st10" d="M259.3,395.6c-0.9-0.4-1.9-0.7-2.8-0.7c-2.8,0-4.1,1.7-4.1,5v3.5h5.9v4.3h-5.9v21.4h-5.4v-21.4h-4.4v-4.3
				h4.4v-3.8c0-2.8,0.8-5,2.5-6.7s3.8-2.5,6.5-2.5c1.4,0,2.5,0.2,3.4,0.5V395.6z"/>
		</g>
		<path class="st11" d="M259.3,395.6c-0.9-0.4-1.9-0.7-2.8-0.7c-2.8,0-4.1,1.7-4.1,5v3.5h5.9v4.3h-5.9v21.4h-5.4v-21.4h-4.4v-4.3
			h4.4v-3.8c0-2.8,0.8-5,2.5-6.7s3.8-2.5,6.5-2.5c1.4,0,2.5,0.2,3.4,0.5V395.6z"/>
	</g>
	<g>
		<g>
			<path class="st9" d="M276.6,395.6c-0.9-0.4-1.9-0.7-2.8-0.7c-2.8,0-4.1,1.7-4.1,5v3.5h5.9v4.3h-5.9v21.4h-5.4v-21.4h-4.4v-4.3
				h4.4v-3.8c0-2.8,0.8-5,2.5-6.7c1.7-1.6,3.8-2.5,6.5-2.5c1.4,0,2.5,0.2,3.4,0.5V395.6z"/>
		</g>
		<g>
			<path class="st10" d="M276.6,395.6c-0.9-0.4-1.9-0.7-2.8-0.7c-2.8,0-4.1,1.7-4.1,5v3.5h5.9v4.3h-5.9v21.4h-5.4v-21.4h-4.4v-4.3
				h4.4v-3.8c0-2.8,0.8-5,2.5-6.7c1.7-1.6,3.8-2.5,6.5-2.5c1.4,0,2.5,0.2,3.4,0.5V395.6z"/>
		</g>
		<path class="st11" d="M276.6,395.6c-0.9-0.4-1.9-0.7-2.8-0.7c-2.8,0-4.1,1.7-4.1,5v3.5h5.9v4.3h-5.9v21.4h-5.4v-21.4h-4.4v-4.3
			h4.4v-3.8c0-2.8,0.8-5,2.5-6.7c1.7-1.6,3.8-2.5,6.5-2.5c1.4,0,2.5,0.2,3.4,0.5V395.6z"/>
	</g>
	<g>
		<g>
			<path class="st9" d="M301.3,417.8h-17.7c0.2,5.2,2.9,7.8,7.9,7.8c2.8,0,5.4-0.9,7.8-2.6v4.5c-2.3,1.5-5.3,2.3-9,2.3
				c-3.8,0-6.8-1.2-8.9-3.5s-3.2-5.6-3.2-9.8c0-4,1.2-7.2,3.5-9.8c2.3-2.6,5.2-3.9,8.7-3.9c3.5,0,6.2,1.1,8.1,3.3
				c1.9,2.2,2.9,5.2,2.9,9V417.8z M296,413.8c0-2.2-0.5-3.9-1.5-5.1c-1-1.2-2.4-1.8-4.2-1.8c-1.7,0-3.1,0.6-4.3,1.9
				c-1.2,1.2-2,2.9-2.3,5H296z"/>
		</g>
		<g>
			<path class="st10" d="M301.3,417.8h-17.7c0.2,5.2,2.9,7.8,7.9,7.8c2.8,0,5.4-0.9,7.8-2.6v4.5c-2.3,1.5-5.3,2.3-9,2.3
				c-3.8,0-6.8-1.2-8.9-3.5s-3.2-5.6-3.2-9.8c0-4,1.2-7.2,3.5-9.8c2.3-2.6,5.2-3.9,8.7-3.9c3.5,0,6.2,1.1,8.1,3.3
				c1.9,2.2,2.9,5.2,2.9,9V417.8z M296,413.8c0-2.2-0.5-3.9-1.5-5.1c-1-1.2-2.4-1.8-4.2-1.8c-1.7,0-3.1,0.6-4.3,1.9
				c-1.2,1.2-2,2.9-2.3,5H296z"/>
		</g>
		<path class="st11" d="M301.3,417.8h-17.7c0.2,5.2,2.9,7.8,7.9,7.8c2.8,0,5.4-0.9,7.8-2.6v4.5c-2.3,1.5-5.3,2.3-9,2.3
			c-3.8,0-6.8-1.2-8.9-3.5s-3.2-5.6-3.2-9.8c0-4,1.2-7.2,3.5-9.8c2.3-2.6,5.2-3.9,8.7-3.9c3.5,0,6.2,1.1,8.1,3.3
			c1.9,2.2,2.9,5.2,2.9,9V417.8z M296,413.8c0-2.2-0.5-3.9-1.5-5.1c-1-1.2-2.4-1.8-4.2-1.8c-1.7,0-3.1,0.6-4.3,1.9
			c-1.2,1.2-2,2.9-2.3,5H296z"/>
	</g>
	<g>
		<g>
			<path class="st9" d="M328.5,417.8h-17.7c0.2,5.2,2.9,7.8,7.9,7.8c2.8,0,5.4-0.9,7.8-2.6v4.5c-2.3,1.5-5.3,2.3-9,2.3
				c-3.8,0-6.8-1.2-8.9-3.5c-2.2-2.3-3.2-5.6-3.2-9.8c0-4,1.2-7.2,3.5-9.8c2.3-2.6,5.2-3.9,8.7-3.9c3.5,0,6.2,1.1,8.1,3.3
				c1.9,2.2,2.9,5.2,2.9,9V417.8z M323.2,413.8c0-2.2-0.5-3.9-1.5-5.1c-1-1.2-2.4-1.8-4.2-1.8c-1.7,0-3.1,0.6-4.3,1.9
				c-1.2,1.2-2,2.9-2.3,5H323.2z"/>
		</g>
		<g>
			<path class="st10" d="M328.5,417.8h-17.7c0.2,5.2,2.9,7.8,7.9,7.8c2.8,0,5.4-0.9,7.8-2.6v4.5c-2.3,1.5-5.3,2.3-9,2.3
				c-3.8,0-6.8-1.2-8.9-3.5c-2.2-2.3-3.2-5.6-3.2-9.8c0-4,1.2-7.2,3.5-9.8c2.3-2.6,5.2-3.9,8.7-3.9c3.5,0,6.2,1.1,8.1,3.3
				c1.9,2.2,2.9,5.2,2.9,9V417.8z M323.2,413.8c0-2.2-0.5-3.9-1.5-5.1c-1-1.2-2.4-1.8-4.2-1.8c-1.7,0-3.1,0.6-4.3,1.9
				c-1.2,1.2-2,2.9-2.3,5H323.2z"/>
		</g>
		<path class="st11" d="M328.5,417.8h-17.7c0.2,5.2,2.9,7.8,7.9,7.8c2.8,0,5.4-0.9,7.8-2.6v4.5c-2.3,1.5-5.3,2.3-9,2.3
			c-3.8,0-6.8-1.2-8.9-3.5c-2.2-2.3-3.2-5.6-3.2-9.8c0-4,1.2-7.2,3.5-9.8c2.3-2.6,5.2-3.9,8.7-3.9c3.5,0,6.2,1.1,8.1,3.3
			c1.9,2.2,2.9,5.2,2.9,9V417.8z M323.2,413.8c0-2.2-0.5-3.9-1.5-5.1c-1-1.2-2.4-1.8-4.2-1.8c-1.7,0-3.1,0.6-4.3,1.9
			c-1.2,1.2-2,2.9-2.3,5H323.2z"/>
	</g>
	<g>
		<g>
			<path class="st9" d="M345.1,421.7c2.8,2.2,6,3.4,9.7,3.4c4.8,0,7.2-1.6,7.2-4.9c0-0.9-0.3-1.8-0.8-2.6c-0.5-0.8-1.2-1.4-2.1-2
				s-2.7-1.5-5.3-2.7c-3.2-1.5-5.5-3.1-6.8-4.7c-1.3-1.6-1.9-3.5-1.9-5.6c0-3.1,1.2-5.5,3.7-7.3c2.4-1.8,5.6-2.7,9.4-2.7
				c3.6,0,6.3,0.4,8.2,1.3v5.7c-2.2-1.5-5-2.3-8.3-2.3c-2.1,0-3.8,0.4-5.1,1.3c-1.3,0.9-2,2-2,3.5c0,1.3,0.5,2.5,1.4,3.3
				c1,0.9,3,2,6,3.5c3.6,1.7,6,3.3,7.4,5c1.4,1.7,2,3.6,2,5.8c0,3.3-1.2,5.7-3.5,7.5c-2.4,1.7-5.6,2.6-9.8,2.6
				c-1.5,0-3.2-0.2-5.1-0.6c-1.9-0.4-3.3-0.9-4.3-1.5V421.7z"/>
		</g>
		<g>
			<path class="st10" d="M345.1,421.7c2.8,2.2,6,3.4,9.7,3.4c4.8,0,7.2-1.6,7.2-4.9c0-0.9-0.3-1.8-0.8-2.6c-0.5-0.8-1.2-1.4-2.1-2
				s-2.7-1.5-5.3-2.7c-3.2-1.5-5.5-3.1-6.8-4.7c-1.3-1.6-1.9-3.5-1.9-5.6c0-3.1,1.2-5.5,3.7-7.3c2.4-1.8,5.6-2.7,9.4-2.7
				c3.6,0,6.3,0.4,8.2,1.3v5.7c-2.2-1.5-5-2.3-8.3-2.3c-2.1,0-3.8,0.4-5.1,1.3c-1.3,0.9-2,2-2,3.5c0,1.3,0.5,2.5,1.4,3.3
				c1,0.9,3,2,6,3.5c3.6,1.7,6,3.3,7.4,5c1.4,1.7,2,3.6,2,5.8c0,3.3-1.2,5.7-3.5,7.5c-2.4,1.7-5.6,2.6-9.8,2.6
				c-1.5,0-3.2-0.2-5.1-0.6c-1.9-0.4-3.3-0.9-4.3-1.5V421.7z"/>
		</g>
		<path class="st11" d="M345.1,421.7c2.8,2.2,6,3.4,9.7,3.4c4.8,0,7.2-1.6,7.2-4.9c0-0.9-0.3-1.8-0.8-2.6c-0.5-0.8-1.2-1.4-2.1-2
			s-2.7-1.5-5.3-2.7c-3.2-1.5-5.5-3.1-6.8-4.7c-1.3-1.6-1.9-3.5-1.9-5.6c0-3.1,1.2-5.5,3.7-7.3c2.4-1.8,5.6-2.7,9.4-2.7
			c3.6,0,6.3,0.4,8.2,1.3v5.7c-2.2-1.5-5-2.3-8.3-2.3c-2.1,0-3.8,0.4-5.1,1.3c-1.3,0.9-2,2-2,3.5c0,1.3,0.5,2.5,1.4,3.3
			c1,0.9,3,2,6,3.5c3.6,1.7,6,3.3,7.4,5c1.4,1.7,2,3.6,2,5.8c0,3.3-1.2,5.7-3.5,7.5c-2.4,1.7-5.6,2.6-9.8,2.6
			c-1.5,0-3.2-0.2-5.1-0.6c-1.9-0.4-3.3-0.9-4.3-1.5V421.7z"/>
	</g>
	<g>
		<g>
			<path class="st9" d="M396.5,429.2H391v-14.7c0-4.8-1.8-7.2-5.3-7.2c-1.8,0-3.3,0.7-4.5,2.1c-1.2,1.4-1.8,3.1-1.8,5.3v14.6h-5.5
				v-38h5.5v16.5h0.1c2-3.1,4.7-4.7,8.2-4.7c5.8,0,8.7,3.5,8.7,10.5V429.2z"/>
		</g>
		<g>
			<path class="st10" d="M396.5,429.2H391v-14.7c0-4.8-1.8-7.2-5.3-7.2c-1.8,0-3.3,0.7-4.5,2.1c-1.2,1.4-1.8,3.1-1.8,5.3v14.6h-5.5
				v-38h5.5v16.5h0.1c2-3.1,4.7-4.7,8.2-4.7c5.8,0,8.7,3.5,8.7,10.5V429.2z"/>
		</g>
		<path class="st11" d="M396.5,429.2H391v-14.7c0-4.8-1.8-7.2-5.3-7.2c-1.8,0-3.3,0.7-4.5,2.1c-1.2,1.4-1.8,3.1-1.8,5.3v14.6h-5.5
			v-38h5.5v16.5h0.1c2-3.1,4.7-4.7,8.2-4.7c5.8,0,8.7,3.5,8.7,10.5V429.2z"/>
	</g>
	<g>
		<g>
			<path class="st9" d="M402,416.6c0-4.2,1.2-7.6,3.6-10c2.4-2.4,5.7-3.7,9.8-3.7c3.9,0,7,1.2,9.3,3.6c2.3,2.4,3.4,5.6,3.4,9.7
				c0,4.1-1.2,7.4-3.6,9.9c-2.4,2.5-5.6,3.7-9.6,3.7c-3.9,0-7.1-1.2-9.4-3.6C403.2,423.8,402,420.6,402,416.6z M407.6,416.5
				c0,2.8,0.7,5,2.1,6.6c1.4,1.6,3.2,2.4,5.6,2.4c4.9,0,7.4-3,7.4-9.1c0-2.9-0.6-5.2-1.9-6.7c-1.3-1.5-3.1-2.3-5.5-2.3
				c-2.4,0-4.3,0.8-5.6,2.5C408.3,411.4,407.6,413.6,407.6,416.5z"/>
		</g>
		<g>
			<path class="st10" d="M402,416.6c0-4.2,1.2-7.6,3.6-10c2.4-2.4,5.7-3.7,9.8-3.7c3.9,0,7,1.2,9.3,3.6c2.3,2.4,3.4,5.6,3.4,9.7
				c0,4.1-1.2,7.4-3.6,9.9c-2.4,2.5-5.6,3.7-9.6,3.7c-3.9,0-7.1-1.2-9.4-3.6C403.2,423.8,402,420.6,402,416.6z M407.6,416.5
				c0,2.8,0.7,5,2.1,6.6c1.4,1.6,3.2,2.4,5.6,2.4c4.9,0,7.4-3,7.4-9.1c0-2.9-0.6-5.2-1.9-6.7c-1.3-1.5-3.1-2.3-5.5-2.3
				c-2.4,0-4.3,0.8-5.6,2.5C408.3,411.4,407.6,413.6,407.6,416.5z"/>
		</g>
		<path class="st11" d="M402,416.6c0-4.2,1.2-7.6,3.6-10c2.4-2.4,5.7-3.7,9.8-3.7c3.9,0,7,1.2,9.3,3.6c2.3,2.4,3.4,5.6,3.4,9.7
			c0,4.1-1.2,7.4-3.6,9.9c-2.4,2.5-5.6,3.7-9.6,3.7c-3.9,0-7.1-1.2-9.4-3.6C403.2,423.8,402,420.6,402,416.6z M407.6,416.5
			c0,2.8,0.7,5,2.1,6.6c1.4,1.6,3.2,2.4,5.6,2.4c4.9,0,7.4-3,7.4-9.1c0-2.9-0.6-5.2-1.9-6.7c-1.3-1.5-3.1-2.3-5.5-2.3
			c-2.4,0-4.3,0.8-5.6,2.5C408.3,411.4,407.6,413.6,407.6,416.5z"/>
	</g>
	<g>
		<g>
			<path class="st9" d="M439.7,425.7V441h-5.5v-37.5h5.5v4.3h0.1c2-3.3,4.9-4.9,8.6-4.9c3.3,0,5.8,1.1,7.7,3.4
				c1.9,2.3,2.8,5.4,2.8,9.3c0,4.3-1.1,7.7-3.2,10.3s-5,3.9-8.5,3.9c-3.3,0-5.7-1.4-7.5-4.1H439.7z M439.7,418.4c0,2,0.6,3.7,1.9,5
				c1.2,1.4,2.8,2,4.7,2c2.3,0,4-0.9,5.3-2.6c1.3-1.7,1.9-4.2,1.9-7.2c0-2.6-0.6-4.7-1.7-6.1c-1.2-1.4-2.8-2.2-4.9-2.2
				s-3.8,0.8-5.1,2.3s-2,3.4-2,5.8V418.4z"/>
		</g>
		<g>
			<path class="st10" d="M439.7,425.7V441h-5.5v-37.5h5.5v4.3h0.1c2-3.3,4.9-4.9,8.6-4.9c3.3,0,5.8,1.1,7.7,3.4
				c1.9,2.3,2.8,5.4,2.8,9.3c0,4.3-1.1,7.7-3.2,10.3s-5,3.9-8.5,3.9c-3.3,0-5.7-1.4-7.5-4.1H439.7z M439.7,418.4c0,2,0.6,3.7,1.9,5
				c1.2,1.4,2.8,2,4.7,2c2.3,0,4-0.9,5.3-2.6c1.3-1.7,1.9-4.2,1.9-7.2c0-2.6-0.6-4.7-1.7-6.1c-1.2-1.4-2.8-2.2-4.9-2.2
				s-3.8,0.8-5.1,2.3s-2,3.4-2,5.8V418.4z"/>
		</g>
		<path class="st11" d="M439.7,425.7V441h-5.5v-37.5h5.5v4.3h0.1c2-3.3,4.9-4.9,8.6-4.9c3.3,0,5.8,1.1,7.7,3.4
			c1.9,2.3,2.8,5.4,2.8,9.3c0,4.3-1.1,7.7-3.2,10.3s-5,3.9-8.5,3.9c-3.3,0-5.7-1.4-7.5-4.1H439.7z M439.7,418.4c0,2,0.6,3.7,1.9,5
			c1.2,1.4,2.8,2,4.7,2c2.3,0,4-0.9,5.3-2.6c1.3-1.7,1.9-4.2,1.9-7.2c0-2.6-0.6-4.7-1.7-6.1c-1.2-1.4-2.8-2.2-4.9-2.2
			s-3.8,0.8-5.1,2.3s-2,3.4-2,5.8V418.4z"/>
	</g>
</g>
</svg>
